<svg width="138" height="45" viewBox="0 0 138 45" fill="none" xmlns="http://www.w3.org/2000/svg">
<path d="M1 19.1923V1H11V17.5385H16H21V1H31V44H26H21V27.4615H1V44H11V32.4231" stroke="white" stroke-width="2"/>
<path d="M53.96 15.04V29H51.16V23.06H45.18V29H42.38V15.04H45.18V20.78H51.16V15.04H53.96ZM59.4759 15.04V23.68C59.4759 24.6267 59.7226 25.3533 60.2159 25.86C60.7093 26.3533 61.4026 26.6 62.2959 26.6C63.2026 26.6 63.9026 26.3533 64.3959 25.86C64.8893 25.3533 65.1359 24.6267 65.1359 23.68V15.04H67.9559V23.66C67.9559 24.8467 67.6959 25.8533 67.1759 26.68C66.6693 27.4933 65.9826 28.1067 65.1159 28.52C64.2626 28.9333 63.3093 29.14 62.2559 29.14C61.2159 29.14 60.2693 28.9333 59.4159 28.52C58.5759 28.1067 57.9093 27.4933 57.4159 26.68C56.9226 25.8533 56.6759 24.8467 56.6759 23.66V15.04H59.4759ZM78.5813 21.84C79.3679 21.9867 80.0146 22.38 80.5213 23.02C81.0279 23.66 81.2813 24.3933 81.2813 25.22C81.2813 25.9667 81.0946 26.6267 80.7213 27.2C80.3613 27.76 79.8346 28.2 79.1413 28.52C78.4479 28.84 77.6279 29 76.6813 29H70.6613V15.04H76.4213C77.3679 15.04 78.1813 15.1933 78.8613 15.5C79.5546 15.8067 80.0746 16.2333 80.4213 16.78C80.7813 17.3267 80.9613 17.9467 80.9613 18.64C80.9613 19.4533 80.7413 20.1333 80.3012 20.68C79.8746 21.2267 79.3013 21.6133 78.5813 21.84ZM73.4613 20.8H76.0213C76.6879 20.8 77.2013 20.6533 77.5613 20.36C77.9213 20.0533 78.1013 19.62 78.1013 19.06C78.1013 18.5 77.9213 18.0667 77.5613 17.76C77.2013 17.4533 76.6879 17.3 76.0213 17.3H73.4613V20.8ZM76.2813 26.72C76.9613 26.72 77.4879 26.56 77.8613 26.24C78.2479 25.92 78.4413 25.4667 78.4413 24.88C78.4413 24.28 78.2413 23.8133 77.8413 23.48C77.4413 23.1333 76.9013 22.96 76.2213 22.96H73.4613V26.72H76.2813Z" fill="white"/>
<path d="M93.9728 17.92V29H91.1528V27.6C90.7928 28.08 90.3195 28.46 89.7328 28.74C89.1595 29.0067 88.5328 29.14 87.8528 29.14C86.9861 29.14 86.2195 28.96 85.5528 28.6C84.8861 28.2267 84.3595 27.6867 83.9728 26.98C83.5995 26.26 83.4128 25.4067 83.4128 24.42V17.92H86.2128V24.02C86.2128 24.9 86.4328 25.58 86.8728 26.06C87.3128 26.5267 87.9128 26.76 88.6728 26.76C89.4461 26.76 90.0528 26.5267 90.4928 26.06C90.9328 25.58 91.1528 24.9 91.1528 24.02V17.92H93.9728ZM100.975 29.18C100.069 29.18 99.2555 29.02 98.5355 28.7C97.8155 28.3667 97.2421 27.92 96.8155 27.36C96.4021 26.8 96.1755 26.18 96.1355 25.5H98.9555C99.0088 25.9267 99.2155 26.28 99.5755 26.56C99.9488 26.84 100.409 26.98 100.955 26.98C101.489 26.98 101.902 26.8733 102.195 26.66C102.502 26.4467 102.655 26.1733 102.655 25.84C102.655 25.48 102.469 25.2133 102.095 25.04C101.735 24.8533 101.155 24.6533 100.355 24.44C99.5288 24.24 98.8488 24.0333 98.3155 23.82C97.7955 23.6067 97.3421 23.28 96.9555 22.84C96.5821 22.4 96.3955 21.8067 96.3955 21.06C96.3955 20.4467 96.5688 19.8867 96.9155 19.38C97.2755 18.8733 97.7821 18.4733 98.4355 18.18C99.1021 17.8867 99.8821 17.74 100.775 17.74C102.095 17.74 103.149 18.0733 103.935 18.74C104.722 19.3933 105.155 20.28 105.235 21.4H102.555C102.515 20.96 102.329 20.6133 101.995 20.36C101.675 20.0933 101.242 19.96 100.695 19.96C100.189 19.96 99.7955 20.0533 99.5155 20.24C99.2488 20.4267 99.1155 20.6867 99.1155 21.02C99.1155 21.3933 99.3021 21.68 99.6755 21.88C100.049 22.0667 100.629 22.26 101.415 22.46C102.215 22.66 102.875 22.8667 103.395 23.08C103.915 23.2933 104.362 23.6267 104.735 24.08C105.122 24.52 105.322 25.1067 105.335 25.84C105.335 26.48 105.155 27.0533 104.795 27.56C104.449 28.0667 103.942 28.4667 103.275 28.76C102.622 29.04 101.855 29.18 100.975 29.18ZM106.914 23.46C106.914 22.3133 107.147 21.3133 107.614 20.46C108.081 19.5933 108.727 18.9267 109.554 18.46C110.381 17.98 111.327 17.74 112.394 17.74C113.767 17.74 114.901 18.0867 115.794 18.78C116.701 19.46 117.307 20.42 117.614 21.66H114.594C114.434 21.18 114.161 20.8067 113.774 20.54C113.401 20.26 112.934 20.12 112.374 20.12C111.574 20.12 110.941 20.4133 110.474 21C110.007 21.5733 109.774 22.3933 109.774 23.46C109.774 24.5133 110.007 25.3333 110.474 25.92C110.941 26.4933 111.574 26.78 112.374 26.78C113.507 26.78 114.247 26.2733 114.594 25.26H117.614C117.307 26.46 116.701 27.4133 115.794 28.12C114.887 28.8267 113.754 29.18 112.394 29.18C111.327 29.18 110.381 28.9467 109.554 28.48C108.727 28 108.081 27.3333 107.614 26.48C107.147 25.6133 106.914 24.6067 106.914 23.46ZM118.945 23.42C118.945 22.3 119.165 21.3067 119.605 20.44C120.058 19.5733 120.665 18.9067 121.425 18.44C122.198 17.9733 123.058 17.74 124.005 17.74C124.832 17.74 125.552 17.9067 126.165 18.24C126.792 18.5733 127.292 18.9933 127.665 19.5V17.92H130.485V29H127.665V27.38C127.305 27.9 126.805 28.3333 126.165 28.68C125.538 29.0133 124.812 29.18 123.985 29.18C123.052 29.18 122.198 28.94 121.425 28.46C120.665 27.98 120.058 27.3067 119.605 26.44C119.165 25.56 118.945 24.5533 118.945 23.42ZM127.665 23.46C127.665 22.78 127.532 22.2 127.265 21.72C126.998 21.2267 126.638 20.8533 126.185 20.6C125.732 20.3333 125.245 20.2 124.725 20.2C124.205 20.2 123.725 20.3267 123.285 20.58C122.845 20.8333 122.485 21.2067 122.205 21.7C121.938 22.18 121.805 22.7533 121.805 23.42C121.805 24.0867 121.938 24.6733 122.205 25.18C122.485 25.6733 122.845 26.0533 123.285 26.32C123.738 26.5867 124.218 26.72 124.725 26.72C125.245 26.72 125.732 26.5933 126.185 26.34C126.638 26.0733 126.998 25.7 127.265 25.22C127.532 24.7267 127.665 24.14 127.665 23.46Z" fill="#34A4A9"/>
</svg>
