<svg width="9" height="11" viewBox="0 0 9 11" fill="none" xmlns="http://www.w3.org/2000/svg">
<path d="M6.14704 4.88889C6.14704 5.90141 5.39646 6.72222 4.47057 6.72222C3.54468 6.72222 2.7941 5.90141 2.7941 4.88889C2.7941 3.87637 3.54468 3.05556 4.47057 3.05556C5.39646 3.05556 6.14704 3.87637 6.14704 4.88889Z" fill="#34A4A9"/>
<mask id="path-2-inside-1_7_43" fill="white">
<path d="M8.94118 4.88889C8.94118 8.86111 6.52405 8.86111 4.56817 11C2.61229 8.86111 0 8.85049 0 4.87827C0 2.17821 2.09913 0 4.56817 0C7.03721 0 8.94118 2.18883 8.94118 4.88889Z"/>
</mask>
<path d="M4.56817 11L3.09223 12.3497L4.56817 13.9637L6.04412 12.3497L4.56817 11ZM6.94118 4.88889C6.94118 5.67984 6.82102 6.13994 6.69854 6.4219C6.58217 6.68978 6.41761 6.90469 6.1502 7.14536C5.83052 7.43307 5.4899 7.65741 4.90446 8.08086C4.36773 8.46908 3.71949 8.96438 3.09223 9.65034L6.04412 12.3497C6.39479 11.9662 6.78215 11.6594 7.24873 11.3219C7.66658 11.0197 8.29697 10.5947 8.82606 10.1185C9.40742 9.59531 9.96938 8.93174 10.3673 8.0156C10.7592 7.11353 10.9412 6.08405 10.9412 4.88889H6.94118ZM6.04412 9.65034C5.40689 8.95349 4.73557 8.45271 4.17593 8.06109C3.56174 7.6313 3.20073 7.40576 2.84948 7.10579C2.55304 6.85262 2.37517 6.63111 2.25259 6.36722C2.12608 6.09488 2 5.65004 2 4.87827H-2C-2 6.0926 -1.79955 7.13868 -1.37513 8.05236C-0.946781 8.97449 -0.349343 9.63411 0.251775 10.1475C0.798091 10.6141 1.45688 11.0405 1.88259 11.3384C2.36284 11.6744 2.75151 11.9771 3.09223 12.3497L6.04412 9.65034ZM2 4.87827C2 3.17436 3.30909 2 4.56817 2V-2C0.889179 -2 -2 1.18205 -2 4.87827H2ZM4.56817 2C5.71368 2 6.94118 3.06092 6.94118 4.88889H10.9412C10.9412 1.31673 8.36073 -2 4.56817 -2V2Z" fill="#34A4A9" mask="url(#path-2-inside-1_7_43)"/>
</svg>
